<svg xmlns="http://www.w3.org/2000/svg" style="display: none;">
    <symbol id="location" width="24" height="25" viewBox="0 0 24 25" fill="none" xmlns="http://www.w3.org/2000/svg">
        <path d="M12 13.8938C13.7231 13.8938 15.12 12.4969 15.12 10.7738C15.12 9.05068 13.7231 7.65381 12 7.65381C10.2769 7.65381 8.88 9.05068 8.88 10.7738C8.88 12.4969 10.2769 13.8938 12 13.8938Z" stroke="white" stroke-width="1.5"/>
        <path d="M3.62001 8.95387C5.59001 0.293869 18.42 0.30387 20.38 8.96387C21.53 14.0439 18.37 18.3439 15.6 21.0039C13.59 22.9439 10.41 22.9439 8.39001 21.0039C5.63001 18.3439 2.47001 14.0339 3.62001 8.95387Z" stroke="white" stroke-width="1.5"/>
    </symbol>

    <symbol id="call" width="24" height="25" viewBox="0 0 24 25" fill="none" xmlns="http://www.w3.org/2000/svg">
        <path d="M22.967 19.4269C22.967 19.8229 22.879 20.2299 22.692 20.6259C22.505 21.0219 22.263 21.3959 21.944 21.7479C21.405 22.3419 20.811 22.7709 20.14 23.0459C19.48 23.3209 18.765 23.4639 17.995 23.4639C16.873 23.4639 15.674 23.1999 14.409 22.6609C13.144 22.1219 11.879 21.3959 10.625 20.4829C9.36 19.5589 8.161 18.5359 7.017 17.4029C5.884 16.2589 4.861 15.0599 3.948 13.8059C3.046 12.5519 2.32 11.2979 1.792 10.0549C1.264 8.80087 1 7.60187 1 6.45787C1 5.70987 1.132 4.99487 1.396 4.33487C1.66 3.66387 2.078 3.04787 2.661 2.49787C3.365 1.80487 4.135 1.46387 4.949 1.46387C5.257 1.46387 5.565 1.52987 5.84 1.66187C6.126 1.79387 6.379 1.99187 6.577 2.27787L9.129 5.87487C9.327 6.14987 9.47 6.40287 9.569 6.64487C9.668 6.87587 9.723 7.10687 9.723 7.31587C9.723 7.57987 9.646 7.84387 9.492 8.09687C9.349 8.34987 9.14 8.61387 8.876 8.87787L8.04 9.74687C7.919 9.86787 7.864 10.0109 7.864 10.1869C7.864 10.2749 7.875 10.3519 7.897 10.4399C7.93 10.5279 7.963 10.5939 7.985 10.6599C8.183 11.0229 8.524 11.4959 9.008 12.0679C9.503 12.6399 10.031 13.2229 10.603 13.8059C11.197 14.3889 11.769 14.9279 12.352 15.4229C12.924 15.9069 13.397 16.2369 13.771 16.4349C13.826 16.4569 13.892 16.4899 13.969 16.5229C14.057 16.5559 14.145 16.5669 14.244 16.5669C14.431 16.5669 14.574 16.5009 14.695 16.3799L15.531 15.5549C15.806 15.2799 16.07 15.0709 16.323 14.9389C16.576 14.7849 16.829 14.7079 17.104 14.7079C17.313 14.7079 17.533 14.7519 17.775 14.8509C18.017 14.9499 18.27 15.0929 18.545 15.2799L22.186 17.8649C22.472 18.0629 22.67 18.2939 22.791 18.5689C22.901 18.8439 22.967 19.1189 22.967 19.4269Z" stroke="white" stroke-width="1.5" stroke-miterlimit="10"/>
    </symbol>

    <symbol id="sms" width="24" height="25" viewBox="0 0 24 25" fill="none" xmlns="http://www.w3.org/2000/svg">
        <path d="M17.3235 21.9639H6.44118C3.17647 21.9639 1 20.3315 1 16.5227V8.90504C1 5.09622 3.17647 3.46387 6.44118 3.46387H17.3235C20.5882 3.46387 22.7647 5.09622 22.7647 8.90504V16.5227C22.7647 20.3315 20.5882 21.9639 17.3235 21.9639Z" stroke="white" stroke-width="1.5" stroke-miterlimit="10" stroke-linecap="round" stroke-linejoin="round"/>
        <path d="M17.3238 9.44824L13.9176 12.1688C12.7967 13.0612 10.9576 13.0612 9.83669 12.1688L6.44141 9.44824" stroke="white" stroke-width="1.5" stroke-miterlimit="10" stroke-linecap="round" stroke-linejoin="round"/>
    </symbol>

    <symbol id="logo" width="148" height="40" viewBox="0 0 148 40" xmlns="http://www.w3.org/2000/svg">
        <path d="M6.27243 0.716254V33.2231H21.8172V39.2837H0V0.716254H6.27243Z"/>
        <path d="M55.9299 34.2149C52.1119 38.0716 47.4394 40 41.9124 40C36.3854 40 31.6947 38.0716 27.8403 34.2149C24.0223 30.3214 22.1133 25.5831 22.1133 20C22.1133 14.4169 24.0223 9.69697 27.8403 5.84022C31.6947 1.94674 36.3854 0 41.9124 0C47.4394 0 52.1119 1.94674 55.9299 5.84022C59.7843 9.69697 61.7114 14.4169 61.7114 20C61.7114 25.5831 59.7843 30.3214 55.9299 34.2149ZM32.2583 29.9174C34.9127 32.5252 38.1307 33.8292 41.9124 33.8292C45.7304 33.8292 48.9302 32.5252 51.5119 29.9174C54.13 27.2727 55.439 23.9669 55.439 20C55.439 16.0331 54.13 12.7456 51.5119 10.1377C48.9302 7.49311 45.7304 6.1708 41.9124 6.1708C38.0944 6.1708 34.8763 7.49311 32.2583 10.1377C29.6766 12.7456 28.3857 16.0331 28.3857 20C28.3857 23.9302 29.6766 27.236 32.2583 29.9174Z"/>
        <path d="M85.4866 19.3388H104.577V21.9835C104.577 27.2727 102.849 31.607 99.395 34.9862C95.977 38.3287 91.4681 40 85.8684 40C79.9778 40 75.1053 38.0716 71.2509 34.2149C67.4329 30.3581 65.5239 25.6198 65.5239 20C65.5239 14.4169 67.4329 9.69697 71.2509 5.84022C75.1053 1.94674 79.8687 0 85.5411 0C89.0683 0 92.3045 0.826447 95.2498 2.47934C98.2315 4.0955 100.54 6.31772 102.177 9.146L96.777 12.2865C95.7589 10.4132 94.2498 8.92562 92.2499 7.82369C90.25 6.72176 88.0138 6.1708 85.5411 6.1708C81.5413 6.1708 78.2506 7.49311 75.6689 10.1377C73.0872 12.8191 71.7963 16.1249 71.7963 20.0551C71.7963 24.022 73.0872 27.3095 75.6689 29.9174C78.3233 32.5252 81.7413 33.8292 85.9229 33.8292C89.2682 33.8292 92.0136 33.0395 94.1589 31.4601C96.3043 29.8806 97.6678 27.7319 98.2496 25.0138H85.4866V19.3388Z"/>
        <path d="M142.218 34.2149C138.4 38.0716 133.728 40 128.201 40C122.674 40 117.983 38.0716 114.129 34.2149C110.311 30.3214 108.402 25.5831 108.402 20C108.402 14.4169 110.311 9.69697 114.129 5.84022C117.983 1.94674 122.674 0 128.201 0C133.728 0 138.4 1.94674 142.218 5.84022C146.073 9.69697 148 14.4169 148 20C148 25.5831 146.073 30.3214 142.218 34.2149ZM118.547 29.9174C121.201 32.5252 124.419 33.8292 128.201 33.8292C132.019 33.8292 135.219 32.5252 137.8 29.9174C140.419 27.2727 141.728 23.9669 141.728 20C141.728 16.0331 140.419 12.7456 137.8 10.1377C135.219 7.49311 132.019 6.1708 128.201 6.1708C124.383 6.1708 121.165 7.49311 118.547 10.1377C115.965 12.7456 114.674 16.0331 114.674 20C114.674 23.9302 115.965 27.236 118.547 29.9174Z/">
    </symbol>


    <symbol id="close" width="20" height="20" viewBox="0 0 20 20" fill="none" xmlns="http://www.w3.org/2000/svg">
        <path d="M3.35 3L17 16.65M17 3L3 17" stroke="white" stroke-width="2" stroke-linecap="round" stroke-linejoin="round"/>
    </symbol>


</svg>
